PathFileType	4	(X/Y/Z)	T00_Trial_0-99.trc
DataRate	CameraRate	NumFrames	NumMarkers	Units	OrigDataRate	OrigDataStartFrame	OrigNumFrames
60	60	6	22	m	60	49	99
Frame#	Time	Hip			RHip			RKnee			RAnkle			RBigToe			RSmallToe			RHeel			LHip			LKnee			LAnkle			LBigToe			LSmallToe			LHeel			Neck			Head			Nose			RShoulder			RElbow			RWrist			LShoulder			LElbow			LWrist		
		X1	Y1	Z1	X2	Y2	Z2	X3	Y3	Z3	X4	Y4	Z4	X5	Y5	Z5	X6	Y6	Z6	X7	Y7	Z7	X8	Y8	Z8	X9	Y9	Z9	X10	Y10	Z10	X11	Y11	Z11	X12	Y12	Z12	X13	Y13	Z13	X14	Y14	Z14	X15	Y15	Z15	X16	Y16	Z16	X17	Y17	Z17	X18	Y18	Z18	X19	Y19	Z19	X20	Y20	Z20	X21	Y21	Z21	X22	Y22	Z22
49	0.8166666666666667	-0.14743537256127295	0.9495126757928649	-1.105705359045594	-0.07053637426433776	0.9347695164448194	-0.7802800800000438	-0.22580768072066829	0.5095540604086847	-1.2314465746016785	-0.8062115752062854	0.4446197608454733	-0.9451212250188242	-0.8431162036012899	0.3973810546095991	-0.8254087721410553	-0.8725043813848621	0.3857820593937109	-0.8636867247321501	-0.8232025295176735	0.3980175737718553	-0.9711220793313258	-0.06795838873131312	0.8782477795924718	-1.0792434756129445	-0.0660802141035469	0.4731622908925243	-0.9711855444907183	-0.02867451738954682	0.156379618535616	-1.150072836370304	-0.016991771849487563	0.07198542731537486	-1.0187332566368257	0.014746255255513332	0.06951445960128869	-1.05632553204812	-0.022420124757681445	0.10954617564638716	-1.2090108877779422	0.26687016291152676	1.3300502788639879	-1.0078253466611573	0.0716308299674048	1.6941985096723564	-1.1613362201070678	0.023482133754419203	1.5266114702982818	-1.109965500868608	0.07247052153561152	1.403227020217573	-1.0526057556443318	-0.17789678822665786	1.4962408450086722	-1.0375651438422662	-0.11184210160764603	1.6497824631316795	-0.8528491962471052	0.3355696526301186	1.1661466062406958	-1.0963172107023065	0.36487553300870224	0.8640066367542201	-1.074394081572411	0.3832414426933799	0.6167069838808689	-0.9833964799116743
50	0.8333333333333334	-0.15218572064695254	0.9545048064333799	-1.1010830066907498	-0.07053637426433776	0.9347695164448194	-0.7802800800000438	-0.22580768072066829	0.5095540604086847	-1.2314465746016785	-0.7968584788831989	0.4504000458339495	-0.9447934773401911	-0.8487307020455678	0.3940364758011553	-0.8151976925706921	-0.8717439166070969	0.3807125490879107	-0.8477672620152398	-0.8222932417349078	0.39249977221848004	-0.956647851117588	-0.06126198033802847	0.8933565222618163	-1.089987622427188	-0.07807481292370715	0.4787954153667801	-0.9627951475718652	-0.027951810163335734	0.15337463140796428	-1.1506785788674267	-0.018522487861587583	0.06622114473294959	-1.020630915115825	0.013863016889393127	0.06237590590164423	-1.0561530662768883	-0.022173898740567063	0.10727716062535861	-1.2105774094474167	0.26449234700877217	1.32915933071756	-0.9992381393594277	0.0716308299674048	1.6941985096723564	-1.1613362201070678	0.023482133754419203	1.5266114702982818	-1.109965500868608	0.07163883807682646	1.406748851781392	-1.0360977264088342	-0.18354396051938734	1.4985156362858552	-1.0184018516770785	-0.10118607875146576	1.6468957156316668	-0.8408552807519369	0.33476948067876305	1.1615682926452202	-1.0898483918475526	0.3646575706031197	0.8633953570476909	-1.0697447843997405	0.38821768208842705	0.6134241357607492	-0.980762053242086
51	0.85	-0.15444227747699915	0.9570803279416539	-1.0936476703047893	-0.07053637426433776	0.9347695164448194	-0.7802800800000438	-0.22580768072066829	0.5095540604086847	-1.2314465746016785	-0.7931740838705043	0.4435376636848086	-0.9199547378439756	-0.8281447120192953	0.38924137983510365	-0.8171004743517689	-0.8577948290217983	0.37708188624697875	-0.855560740968013	-0.8136836846720755	0.38748043342520305	-0.943607679309811	-0.07111321399778327	0.8870250156868554	-1.0770566879818941	-0.07038096196087722	0.4805887759830119	-0.9754812574374595	-0.027229102937124654	0.15036964428031258	-1.1512843213645494	-0.023853686663411987	0.06907617016997337	-1.0181797008275428	0.0038721229857173827	0.05974067769183706	-1.0533781145494256	-0.02192767272345268	0.10500814560433007	-1.2121439311168913	0.2617495321439536	1.3290978824248347	-0.9887384704473431	0.0716308299674048	1.6941985096723564	-1.1613362201070678	0.023482133754419203	1.5266114702982818	-1.109965500868608	0.07078685285312844	1.4060275524593446	-1.020652134904925	-0.17769567268080785	1.4973285164765477	-1.0020186522222478	-0.09053005589528551	1.644008968131654	-0.8288613652567686	0.32708244677821674	1.164209624507551	-1.087185687452063	0.36443960819753723	0.8627840773411618	-1.0650954872270701	0.3982234680726063	0.6299700675447331	-0.9922960410905463
52	0.8666666666666667	-0.15432746207410208	0.9498747984928004	-1.0975594604916743	-0.07053637426433776	0.9347695164448194	-0.7802800800000438	-0.22580768072066829	0.5095540604086847	-1.2314465746016785	-0.7742122115190562	0.437660640735376	-0.9165955373098853	-0.8282720131082617	0.38303671227689073	-0.7945412676121909	-0.8531357942974924	0.3807068778750357	-0.8306430645138471	-0.793050846929963	0.3802396560038302	-0.9367371765892953	-0.06160484293824674	0.8927828964178524	-1.094371343260828	-0.06955218805936829	0.4804823579777525	-0.9726258717177084	-0.02650639571091357	0.14736465715266084	-1.151890063861672	-0.018872307716913606	0.06498905895521541	-1.0138797944115412	0.014475038458165586	0.05707871006761594	-1.0530631974257223	-0.021681446706338297	0.10273913058330153	-1.2137104527863658	0.26667322519394615	1.3310359494590442	-0.9854191175683757	0.0716308299674048	1.6941985096723564	-1.1613362201070678	0.023482133754419203	1.5266114702982818	-1.109965500868608	0.07702873262527747	1.4037785732529744	-1.0242146809853394	-0.17818515554252135	1.4983054933594593	-0.9862182094109098	-0.08172643203129488	1.6493473715110023	-0.8087087173875739	0.33210234058347377	1.1575249927563365	-1.0767619050276218	0.3642216457919547	0.8621727976346326	-1.0604461900543998	0.3933871303028773	0.6150128037522884	-0.9851710737962042
53	0.8833333333333333	-0.1538653924537072	0.9589801779301212	-1.0908741475197503	-0.07053637426433776	0.9347695164448194	-0.7802800800000438	-0.22580768072066829	0.5095540604086847	-1.2314465746016785	-0.7592306027066659	0.43035287140230705	-0.9052142920356234	-0.8131324705056793	0.3589863838727452	-0.7776025496194297	-0.8391315429483923	0.3577335284561298	-0.8126698469594601	-0.7761812077779611	0.3670505576105478	-0.9188479612126093	-0.06815151576025466	0.89116681837921	-1.0815653239609888	-0.06795637089612391	0.48064763662791393	-0.9811100822525045	-0.02202303166705038	0.1482413003377902	-1.1481675061391574	-0.00800710659429548	0.06937852189277294	-1.0125716961946882	0.02109894826805728	0.055845574528131235	-1.0450480208136022	-0.022273794478217167	0.09927010985291479	-1.2092914888551305	0.25923308023922265	1.3316173571265748	-0.9721767652133837	0.0716308299674048	1.6941985096723564	-1.1613362201070678	0.023482133754419203	1.5266114702982818	-1.109965500868608	0.07062402312742568	1.4106637101012736	-1.0002890682711292	-0.17826637551693736	1.4984858497288815	-0.973600315824548	-0.07937759566275178	1.6411259202776551	-0.7977080442720551	0.3312361791155415	1.1659819138260596	-1.0703773529198484	0.3687134508705939	0.8719499988478885	-1.0605311864615024	0.40352573870910685	0.6268241953080386	-0.9889573420195582
54	0.9	-0.14983217203024773	0.9623275284973939	-1.100779784012271	-0.07053637426433776	0.9347695164448194	-0.7802800800000438	-0.22580768072066829	0.5095540604086847	-1.2314465746016785	-0.7384381466570016	0.42282822514196056	-0.8917037707076603	-0.7947250469982859	0.3423105337399839	-0.7531452808624128	-0.8172622877125084	0.3470741904540277	-0.7952387832191341	-0.7567544621910604	0.3614410147629765	-0.9086133895063552	-0.06404075147318002	0.8970417984740032	-1.0848670964265257	-0.06156898866437777	0.48396872477422903	-0.9922203853993536	-0.02520916816462977	0.14696998678356404	-1.1513395746454202	-0.012462934900457958	0.0625769851259976	-0.999826455799147	0.018506054814548794	0.05654914731442392	-1.043644005135123	-0.022866142250096033	0.09580108912252805	-1.2048725249238954	0.2585681559156622	1.330055343852769	-0.9660669760106364	0.0716308299674048	1.6941985096723564	-1.1613362201070678	0.023482133754419203	1.5266114702982818	-1.109965500868608	0.07519617269325123	1.4111845594177561	-0.9992088589801013	-0.1801059880150599	1.4993575798408778	-0.9598780159107649	-0.0675130884258846	1.6339063929168554	-0.7968752946242664	0.32840768094354905	1.164148851937067	-1.0671064524779805	0.3662502688844381	0.8717064484684821	-1.0589372601124538	0.39379649663127053	0.6182983098077429	-0.9796662471943309
